<svg width="700pt" height="700pt" version="1.0" viewBox="0 0 700 700" xmlns="http://www.w3.org/2000/svg"><rect x="-3.5527e-15" width="700" height="700" fill="#e30613" stroke-linecap="round" stroke-width="19.158"/><g transform="translate(0 700) scale(.1 -.1)" fill="#fff"><path d="m2108 6125c-2-1-37-6-78-9-92-9-140-15-160-22-8-3-32-8-53-10-96-12-344-118-502-215-87-53-98-62-225-177-270-243-450-599-496-977-6-47-6-347-1-380 3-16 8-50 12-75 20-135 61-292 100-377 8-17 15-34 15-37 0-11 122-266 151-315 101-172 310-455 464-627 125-140 459-479 631-640 23-22 75-70 115-109 41-38 119-110 174-160 55-49 102-92 105-95s45-41 95-85c49-44 99-89 111-100 25-24 57-53 239-215 77-69 142-127 145-130s46-41 95-85c50-44 95-84 101-90 6-5 46-41 90-80 93-83 212-191 237-217 10-10 21-18 24-18 6 0 99 78 144 120 33 32 109 99 234 210 72 63 132 117 135 120s59 53 125 110c66 58 138 121 160 141s105 94 185 164c186 165 414 373 573 525 312 296 653 660 787 839 14 18 34 45 46 59 181 229 354 543 438 797 40 119 63 222 82 370 5 39 5 321 0 360-36 286-109 488-255 715-242 373-655 634-1101 696-251 35-460 20-707-52-100-28-275-100-308-126-19-15-63-137-229-636-256-772-298-903-291-910 3-3 195-7 426-8s422-4 425-6c3-4-66-246-141-493-77-252-248-824-287-955-5-19-39-132-75-250s-71-235-78-260-36-121-65-215c-28-93-78-260-111-370-70-239-93-313-100-320-5-4 1 58 16 165 2 19 7 64 10 100 4 36 8 81 11 100 11 82 14 109 20 175 3 39 8 77 9 85 2 8 6 51 10 95s9 89 11 100 7 49 10 85c2 36 7 76 9 90 3 14 7 54 11 90 3 36 7 76 10 90 2 14 7 54 10 90 11 108 11 113 18 165 14 115 17 143 22 195 2 30 7 73 9 95 10 72 15 119 20 168 9 90 15 142 20 187 10 86 15 125 21 185 3 33 7 69 9 80 22 176 25 224 11 232-6 4-199 8-428 8s-419 3-422 6c-5 5 2 34 38 159 197 692 345 1208 370 1292l33 107-41 39c-109 104-294 221-459 292-217 92-414 134-674 144-45 2-83 2-85 1z" fill="#fff"/></g></svg>
